<?xml version="1.0" encoding="UTF-8" standalone="no"?>
<!DOCTYPE svg PUBLIC "-//W3C//DTD SVG 1.1//EN"
 "http://www.w3.org/Graphics/SVG/1.1/DTD/svg11.dtd">
<!-- Generated by graphviz version 2.47.3 (20210619.1520)
 -->
<!-- Title: dependencies Pages: 1 -->
<svg width="172pt" height="174pt"
 viewBox="0.00 0.00 172.00 173.80" xmlns="http://www.w3.org/2000/svg" xmlns:xlink="http://www.w3.org/1999/xlink">
<g id="graph0" class="graph" transform="scale(1 1) rotate(0) translate(4 169.8)">
<title>dependencies</title>
<polygon fill="white" stroke="transparent" points="-4,4 -4,-169.8 168,-169.8 168,4 -4,4"/>
<text text-anchor="middle" x="82" y="-8.2" font-family="sans-serif" font-size="14.00">dependencies</text>
<g id="clust1" class="cluster">
<title>cluster_InfoTabPageModule</title>
<polygon fill="none" stroke="black" stroke-dasharray="1,5" points="8,-32.8 8,-157.8 156,-157.8 156,-32.8 8,-32.8"/>
</g>
<g id="clust2" class="cluster">
<title>cluster_InfoTabPageModule_declarations</title>
<polygon fill="none" stroke="black" points="30,-40.8 30,-92.8 134,-92.8 134,-40.8 30,-40.8"/>
</g>
<!-- InfoTabPage -->
<g id="node1" class="node">
<title>InfoTabPage</title>
<polygon fill="#ffffb3" stroke="black" points="126.3,-84.8 37.7,-84.8 37.7,-48.8 126.3,-48.8 126.3,-84.8"/>
<text text-anchor="middle" x="82" y="-62.6" font-family="Times,serif" font-size="14.00">InfoTabPage</text>
</g>
<!-- InfoTabPageModule -->
<g id="node2" class="node">
<title>InfoTabPageModule</title>
<polygon fill="#8dd3c7" stroke="black" points="147.85,-149.8 144.85,-153.8 123.85,-153.8 120.85,-149.8 16.15,-149.8 16.15,-113.8 147.85,-113.8 147.85,-149.8"/>
<text text-anchor="middle" x="82" y="-127.6" font-family="Times,serif" font-size="14.00">InfoTabPageModule</text>
</g>
<!-- InfoTabPage&#45;&gt;InfoTabPageModule -->
<g id="edge1" class="edge">
<title>InfoTabPage&#45;&gt;InfoTabPageModule</title>
<path fill="none" stroke="black" d="M82,-84.91C82,-84.91 82,-103.79 82,-103.79"/>
<polygon fill="black" stroke="black" points="78.5,-103.79 82,-113.79 85.5,-103.79 78.5,-103.79"/>
</g>
</g>
</svg>
