<?xml version="1.0" encoding="UTF-8" standalone="no"?>
<!DOCTYPE svg PUBLIC "-//W3C//DTD SVG 1.1//EN"
 "http://www.w3.org/Graphics/SVG/1.1/DTD/svg11.dtd">
<!-- Generated by graphviz version 2.47.3 (20210619.1520)
 -->
<!-- Title: dependencies Pages: 1 -->
<svg width="168pt" height="174pt"
 viewBox="0.00 0.00 168.00 173.80" xmlns="http://www.w3.org/2000/svg" xmlns:xlink="http://www.w3.org/1999/xlink">
<g id="graph0" class="graph" transform="scale(1 1) rotate(0) translate(4 169.8)">
<title>dependencies</title>
<polygon fill="white" stroke="transparent" points="-4,4 -4,-169.8 164,-169.8 164,4 -4,4"/>
<text text-anchor="middle" x="80" y="-8.2" font-family="sans-serif" font-size="14.00">dependencies</text>
<g id="clust1" class="cluster">
<title>cluster_ResultsPageModule</title>
<polygon fill="none" stroke="black" stroke-dasharray="1,5" points="8,-32.8 8,-157.8 152,-157.8 152,-32.8 8,-32.8"/>
</g>
<g id="clust2" class="cluster">
<title>cluster_ResultsPageModule_declarations</title>
<polygon fill="none" stroke="black" points="30,-40.8 30,-92.8 130,-92.8 130,-40.8 30,-40.8"/>
</g>
<!-- ResultsPage -->
<g id="node1" class="node">
<title>ResultsPage</title>
<polygon fill="#ffffb3" stroke="black" points="122.43,-84.8 37.57,-84.8 37.57,-48.8 122.43,-48.8 122.43,-84.8"/>
<text text-anchor="middle" x="80" y="-62.6" font-family="Times,serif" font-size="14.00">ResultsPage</text>
</g>
<!-- ResultsPageModule -->
<g id="node2" class="node">
<title>ResultsPageModule</title>
<polygon fill="#8dd3c7" stroke="black" points="143.98,-149.8 140.98,-153.8 119.98,-153.8 116.98,-149.8 16.02,-149.8 16.02,-113.8 143.98,-113.8 143.98,-149.8"/>
<text text-anchor="middle" x="80" y="-127.6" font-family="Times,serif" font-size="14.00">ResultsPageModule</text>
</g>
<!-- ResultsPage&#45;&gt;ResultsPageModule -->
<g id="edge1" class="edge">
<title>ResultsPage&#45;&gt;ResultsPageModule</title>
<path fill="none" stroke="black" d="M80,-84.91C80,-84.91 80,-103.79 80,-103.79"/>
<polygon fill="black" stroke="black" points="76.5,-103.79 80,-113.79 83.5,-103.79 76.5,-103.79"/>
</g>
</g>
</svg>
