<?xml version="1.0" encoding="UTF-8" standalone="no"?>
<!DOCTYPE svg PUBLIC "-//W3C//DTD SVG 1.1//EN"
 "http://www.w3.org/Graphics/SVG/1.1/DTD/svg11.dtd">
<!-- Generated by graphviz version 2.47.3 (20210619.1520)
 -->
<!-- Title: dependencies Pages: 1 -->
<svg width="1567pt" height="247pt"
 viewBox="0.00 0.00 1567.00 246.80" xmlns="http://www.w3.org/2000/svg" xmlns:xlink="http://www.w3.org/1999/xlink">
<g id="graph0" class="graph" transform="scale(1 1) rotate(0) translate(4 242.8)">
<title>dependencies</title>
<polygon fill="white" stroke="transparent" points="-4,4 -4,-242.8 1563,-242.8 1563,4 -4,4"/>
<text text-anchor="middle" x="779.5" y="-8.2" font-family="sans-serif" font-size="14.00">dependencies</text>
<g id="clust1" class="cluster">
<title>cluster_AppModule</title>
<polygon fill="none" stroke="black" stroke-dasharray="1,5" points="8,-32.8 8,-230.8 521,-230.8 521,-32.8 8,-32.8"/>
</g>
<g id="clust2" class="cluster">
<title>cluster_AppModule_declarations</title>
<polygon fill="none" stroke="black" points="391,-40.8 391,-92.8 513,-92.8 513,-40.8 391,-40.8"/>
</g>
<g id="clust6" class="cluster">
<title>cluster_AppModule_bootstrap</title>
<polygon fill="none" stroke="black" points="211,-170.8 211,-222.8 335,-222.8 335,-170.8 211,-170.8"/>
</g>
<g id="clust7" class="cluster">
<title>cluster_AppModule_providers</title>
<polygon fill="none" stroke="black" points="16,-40.8 16,-92.8 383,-92.8 383,-40.8 16,-40.8"/>
</g>
<g id="clust8" class="cluster">
<title>cluster_DetailsPageModule</title>
<polygon fill="none" stroke="black" stroke-dasharray="1,5" points="529,-32.8 529,-157.8 671,-157.8 671,-32.8 529,-32.8"/>
</g>
<g id="clust9" class="cluster">
<title>cluster_DetailsPageModule_declarations</title>
<polygon fill="none" stroke="black" points="551,-40.8 551,-92.8 649,-92.8 649,-40.8 551,-40.8"/>
</g>
<g id="clust15" class="cluster">
<title>cluster_InfoTabPageModule</title>
<polygon fill="none" stroke="black" stroke-dasharray="1,5" points="679,-32.8 679,-157.8 827,-157.8 827,-32.8 679,-32.8"/>
</g>
<g id="clust16" class="cluster">
<title>cluster_InfoTabPageModule_declarations</title>
<polygon fill="none" stroke="black" points="701,-40.8 701,-92.8 805,-92.8 805,-40.8 701,-40.8"/>
</g>
<g id="clust22" class="cluster">
<title>cluster_QuestionaireTabPageModule</title>
<polygon fill="none" stroke="black" stroke-dasharray="1,5" points="835,-32.8 835,-157.8 1399,-157.8 1399,-32.8 835,-32.8"/>
</g>
<g id="clust23" class="cluster">
<title>cluster_QuestionaireTabPageModule_declarations</title>
<polygon fill="none" stroke="black" points="843,-40.8 843,-92.8 1391,-92.8 1391,-40.8 843,-40.8"/>
</g>
<g id="clust31" class="cluster">
<title>cluster_ResultsPageModule</title>
<polygon fill="none" stroke="black" stroke-dasharray="1,5" points="1407,-32.8 1407,-157.8 1551,-157.8 1551,-32.8 1407,-32.8"/>
</g>
<g id="clust32" class="cluster">
<title>cluster_ResultsPageModule_declarations</title>
<polygon fill="none" stroke="black" points="1429,-40.8 1429,-92.8 1529,-92.8 1529,-40.8 1429,-40.8"/>
</g>
<!-- AppComponent -->
<g id="node1" class="node">
<title>AppComponent</title>
<polygon fill="#ffffb3" stroke="black" points="504.94,-84.8 399.06,-84.8 399.06,-48.8 504.94,-48.8 504.94,-84.8"/>
<text text-anchor="middle" x="452" y="-62.6" font-family="Times,serif" font-size="14.00">AppComponent</text>
</g>
<!-- AppModule -->
<g id="node2" class="node">
<title>AppModule</title>
<polygon fill="#8dd3c7" stroke="black" points="314.66,-149.8 311.66,-153.8 290.66,-153.8 287.66,-149.8 231.34,-149.8 231.34,-113.8 314.66,-113.8 314.66,-149.8"/>
<text text-anchor="middle" x="273" y="-127.6" font-family="Times,serif" font-size="14.00">AppModule</text>
</g>
<!-- AppComponent&#45;&gt;AppModule -->
<g id="edge1" class="edge">
<title>AppComponent&#45;&gt;AppModule</title>
<path fill="none" stroke="black" d="M452,-84.91C452,-104.14 452,-131.8 452,-131.8 452,-131.8 324.97,-131.8 324.97,-131.8"/>
<polygon fill="black" stroke="black" points="324.97,-128.3 314.97,-131.8 324.97,-135.3 324.97,-128.3"/>
</g>
<!-- AppComponent  -->
<g id="node3" class="node">
<title>AppComponent </title>
<polygon fill="#80b1d3" stroke="black" points="327.44,-214.8 218.56,-214.8 218.56,-178.8 327.44,-178.8 327.44,-214.8"/>
<text text-anchor="middle" x="273" y="-192.6" font-family="Times,serif" font-size="14.00">AppComponent </text>
</g>
<!-- AppModule&#45;&gt;AppComponent  -->
<g id="edge2" class="edge">
<title>AppModule&#45;&gt;AppComponent </title>
<path fill="none" stroke="black" stroke-dasharray="1,5" d="M273,-149.91C273,-149.91 273,-168.79 273,-168.79"/>
<polygon fill="black" stroke="black" points="269.5,-168.79 273,-178.79 276.5,-168.79 269.5,-168.79"/>
</g>
<!-- QuestionSourceService -->
<g id="node4" class="node">
<title>QuestionSourceService</title>
<ellipse fill="#fdb462" stroke="black" cx="273" cy="-66.8" rx="101.84" ry="18"/>
<text text-anchor="middle" x="273" y="-62.6" font-family="Times,serif" font-size="14.00">QuestionSourceService</text>
</g>
<!-- QuestionSourceService&#45;&gt;AppModule -->
<g id="edge3" class="edge">
<title>QuestionSourceService&#45;&gt;AppModule</title>
<path fill="none" stroke="black" d="M273,-84.91C273,-84.91 273,-103.79 273,-103.79"/>
<polygon fill="black" stroke="black" points="269.5,-103.79 273,-113.79 276.5,-103.79 269.5,-103.79"/>
</g>
<!-- ResultService -->
<g id="node5" class="node">
<title>ResultService</title>
<ellipse fill="#fdb462" stroke="black" cx="89" cy="-66.8" rx="64.84" ry="18"/>
<text text-anchor="middle" x="89" y="-62.6" font-family="Times,serif" font-size="14.00">ResultService</text>
</g>
<!-- ResultService&#45;&gt;AppModule -->
<g id="edge4" class="edge">
<title>ResultService&#45;&gt;AppModule</title>
<path fill="none" stroke="black" d="M89,-84.91C89,-104.14 89,-131.8 89,-131.8 89,-131.8 221.25,-131.8 221.25,-131.8"/>
<polygon fill="black" stroke="black" points="221.25,-135.3 231.25,-131.8 221.25,-128.3 221.25,-135.3"/>
</g>
<!-- DetailsPage -->
<g id="node6" class="node">
<title>DetailsPage</title>
<polygon fill="#ffffb3" stroke="black" points="641.36,-84.8 558.64,-84.8 558.64,-48.8 641.36,-48.8 641.36,-84.8"/>
<text text-anchor="middle" x="600" y="-62.6" font-family="Times,serif" font-size="14.00">DetailsPage</text>
</g>
<!-- DetailsPageModule -->
<g id="node7" class="node">
<title>DetailsPageModule</title>
<polygon fill="#8dd3c7" stroke="black" points="663.41,-149.8 660.41,-153.8 639.41,-153.8 636.41,-149.8 536.59,-149.8 536.59,-113.8 663.41,-113.8 663.41,-149.8"/>
<text text-anchor="middle" x="600" y="-127.6" font-family="Times,serif" font-size="14.00">DetailsPageModule</text>
</g>
<!-- DetailsPage&#45;&gt;DetailsPageModule -->
<g id="edge5" class="edge">
<title>DetailsPage&#45;&gt;DetailsPageModule</title>
<path fill="none" stroke="black" d="M600,-84.91C600,-84.91 600,-103.79 600,-103.79"/>
<polygon fill="black" stroke="black" points="596.5,-103.79 600,-113.79 603.5,-103.79 596.5,-103.79"/>
</g>
<!-- InfoTabPage -->
<g id="node8" class="node">
<title>InfoTabPage</title>
<polygon fill="#ffffb3" stroke="black" points="797.3,-84.8 708.7,-84.8 708.7,-48.8 797.3,-48.8 797.3,-84.8"/>
<text text-anchor="middle" x="753" y="-62.6" font-family="Times,serif" font-size="14.00">InfoTabPage</text>
</g>
<!-- InfoTabPageModule -->
<g id="node9" class="node">
<title>InfoTabPageModule</title>
<polygon fill="#8dd3c7" stroke="black" points="818.85,-149.8 815.85,-153.8 794.85,-153.8 791.85,-149.8 687.15,-149.8 687.15,-113.8 818.85,-113.8 818.85,-149.8"/>
<text text-anchor="middle" x="753" y="-127.6" font-family="Times,serif" font-size="14.00">InfoTabPageModule</text>
</g>
<!-- InfoTabPage&#45;&gt;InfoTabPageModule -->
<g id="edge6" class="edge">
<title>InfoTabPage&#45;&gt;InfoTabPageModule</title>
<path fill="none" stroke="black" d="M753,-84.91C753,-84.91 753,-103.79 753,-103.79"/>
<polygon fill="black" stroke="black" points="749.5,-103.79 753,-113.79 756.5,-103.79 749.5,-103.79"/>
</g>
<!-- QuestionGroupViewComponent -->
<g id="node10" class="node">
<title>QuestionGroupViewComponent</title>
<polygon fill="#ffffb3" stroke="black" points="1382.97,-84.8 1185.03,-84.8 1185.03,-48.8 1382.97,-48.8 1382.97,-84.8"/>
<text text-anchor="middle" x="1284" y="-62.6" font-family="Times,serif" font-size="14.00">QuestionGroupViewComponent</text>
</g>
<!-- QuestionaireTabPageModule -->
<g id="node13" class="node">
<title>QuestionaireTabPageModule</title>
<polygon fill="#8dd3c7" stroke="black" points="1176.06,-149.8 1173.06,-153.8 1152.06,-153.8 1149.06,-149.8 995.94,-149.8 995.94,-113.8 1176.06,-113.8 1176.06,-149.8"/>
<text text-anchor="middle" x="1086" y="-127.6" font-family="Times,serif" font-size="14.00">QuestionaireTabPageModule</text>
</g>
<!-- QuestionGroupViewComponent&#45;&gt;QuestionaireTabPageModule -->
<g id="edge7" class="edge">
<title>QuestionGroupViewComponent&#45;&gt;QuestionaireTabPageModule</title>
<path fill="none" stroke="black" d="M1184.9,-66.8C1176.75,-66.8 1171.56,-66.8 1171.56,-66.8 1171.56,-66.8 1171.56,-103.69 1171.56,-103.69"/>
<polygon fill="black" stroke="black" points="1168.06,-103.69 1171.56,-113.69 1175.06,-103.69 1168.06,-103.69"/>
</g>
<!-- QuestionViewComponent -->
<g id="node11" class="node">
<title>QuestionViewComponent</title>
<polygon fill="#ffffb3" stroke="black" points="1167.2,-84.8 1004.8,-84.8 1004.8,-48.8 1167.2,-48.8 1167.2,-84.8"/>
<text text-anchor="middle" x="1086" y="-62.6" font-family="Times,serif" font-size="14.00">QuestionViewComponent</text>
</g>
<!-- QuestionViewComponent&#45;&gt;QuestionaireTabPageModule -->
<g id="edge8" class="edge">
<title>QuestionViewComponent&#45;&gt;QuestionaireTabPageModule</title>
<path fill="none" stroke="black" d="M1086,-84.91C1086,-84.91 1086,-103.79 1086,-103.79"/>
<polygon fill="black" stroke="black" points="1082.5,-103.79 1086,-113.79 1089.5,-103.79 1082.5,-103.79"/>
</g>
<!-- QuestionaireTabPage -->
<g id="node12" class="node">
<title>QuestionaireTabPage</title>
<polygon fill="#ffffb3" stroke="black" points="987.01,-84.8 850.99,-84.8 850.99,-48.8 987.01,-48.8 987.01,-84.8"/>
<text text-anchor="middle" x="919" y="-62.6" font-family="Times,serif" font-size="14.00">QuestionaireTabPage</text>
</g>
<!-- QuestionaireTabPage&#45;&gt;QuestionaireTabPageModule -->
<g id="edge9" class="edge">
<title>QuestionaireTabPage&#45;&gt;QuestionaireTabPageModule</title>
<path fill="none" stroke="black" d="M987.35,-66.8C995.19,-66.8 1000.44,-66.8 1000.44,-66.8 1000.44,-66.8 1000.44,-103.69 1000.44,-103.69"/>
<polygon fill="black" stroke="black" points="996.94,-103.69 1000.44,-113.69 1003.94,-103.69 996.94,-103.69"/>
</g>
<!-- ResultsPage -->
<g id="node14" class="node">
<title>ResultsPage</title>
<polygon fill="#ffffb3" stroke="black" points="1521.43,-84.8 1436.57,-84.8 1436.57,-48.8 1521.43,-48.8 1521.43,-84.8"/>
<text text-anchor="middle" x="1479" y="-62.6" font-family="Times,serif" font-size="14.00">ResultsPage</text>
</g>
<!-- ResultsPageModule -->
<g id="node15" class="node">
<title>ResultsPageModule</title>
<polygon fill="#8dd3c7" stroke="black" points="1542.98,-149.8 1539.98,-153.8 1518.98,-153.8 1515.98,-149.8 1415.02,-149.8 1415.02,-113.8 1542.98,-113.8 1542.98,-149.8"/>
<text text-anchor="middle" x="1479" y="-127.6" font-family="Times,serif" font-size="14.00">ResultsPageModule</text>
</g>
<!-- ResultsPage&#45;&gt;ResultsPageModule -->
<g id="edge10" class="edge">
<title>ResultsPage&#45;&gt;ResultsPageModule</title>
<path fill="none" stroke="black" d="M1479,-84.91C1479,-84.91 1479,-103.79 1479,-103.79"/>
<polygon fill="black" stroke="black" points="1475.5,-103.79 1479,-113.79 1482.5,-103.79 1475.5,-103.79"/>
</g>
</g>
</svg>
