<?xml version="1.0" encoding="UTF-8" standalone="no"?>
<!DOCTYPE svg PUBLIC "-//W3C//DTD SVG 1.1//EN"
 "http://www.w3.org/Graphics/SVG/1.1/DTD/svg11.dtd">
<!-- Generated by graphviz version 2.47.3 (20210619.1520)
 -->
<!-- Title: dependencies Pages: 1 -->
<svg width="588pt" height="174pt"
 viewBox="0.00 0.00 588.00 173.80" xmlns="http://www.w3.org/2000/svg" xmlns:xlink="http://www.w3.org/1999/xlink">
<g id="graph0" class="graph" transform="scale(1 1) rotate(0) translate(4 169.8)">
<title>dependencies</title>
<polygon fill="white" stroke="transparent" points="-4,4 -4,-169.8 584,-169.8 584,4 -4,4"/>
<text text-anchor="middle" x="290" y="-8.2" font-family="sans-serif" font-size="14.00">dependencies</text>
<g id="clust1" class="cluster">
<title>cluster_QuestionaireTabPageModule</title>
<polygon fill="none" stroke="black" stroke-dasharray="1,5" points="8,-32.8 8,-157.8 572,-157.8 572,-32.8 8,-32.8"/>
</g>
<g id="clust2" class="cluster">
<title>cluster_QuestionaireTabPageModule_declarations</title>
<polygon fill="none" stroke="black" points="16,-40.8 16,-92.8 564,-92.8 564,-40.8 16,-40.8"/>
</g>
<!-- QuestionGroupViewComponent -->
<g id="node1" class="node">
<title>QuestionGroupViewComponent</title>
<polygon fill="#ffffb3" stroke="black" points="555.97,-84.8 358.03,-84.8 358.03,-48.8 555.97,-48.8 555.97,-84.8"/>
<text text-anchor="middle" x="457" y="-62.6" font-family="Times,serif" font-size="14.00">QuestionGroupViewComponent</text>
</g>
<!-- QuestionaireTabPageModule -->
<g id="node4" class="node">
<title>QuestionaireTabPageModule</title>
<polygon fill="#8dd3c7" stroke="black" points="349.06,-149.8 346.06,-153.8 325.06,-153.8 322.06,-149.8 168.94,-149.8 168.94,-113.8 349.06,-113.8 349.06,-149.8"/>
<text text-anchor="middle" x="259" y="-127.6" font-family="Times,serif" font-size="14.00">QuestionaireTabPageModule</text>
</g>
<!-- QuestionGroupViewComponent&#45;&gt;QuestionaireTabPageModule -->
<g id="edge1" class="edge">
<title>QuestionGroupViewComponent&#45;&gt;QuestionaireTabPageModule</title>
<path fill="none" stroke="black" d="M357.9,-66.8C349.75,-66.8 344.56,-66.8 344.56,-66.8 344.56,-66.8 344.56,-103.69 344.56,-103.69"/>
<polygon fill="black" stroke="black" points="341.06,-103.69 344.56,-113.69 348.06,-103.69 341.06,-103.69"/>
</g>
<!-- QuestionViewComponent -->
<g id="node2" class="node">
<title>QuestionViewComponent</title>
<polygon fill="#ffffb3" stroke="black" points="340.2,-84.8 177.8,-84.8 177.8,-48.8 340.2,-48.8 340.2,-84.8"/>
<text text-anchor="middle" x="259" y="-62.6" font-family="Times,serif" font-size="14.00">QuestionViewComponent</text>
</g>
<!-- QuestionViewComponent&#45;&gt;QuestionaireTabPageModule -->
<g id="edge2" class="edge">
<title>QuestionViewComponent&#45;&gt;QuestionaireTabPageModule</title>
<path fill="none" stroke="black" d="M259,-84.91C259,-84.91 259,-103.79 259,-103.79"/>
<polygon fill="black" stroke="black" points="255.5,-103.79 259,-113.79 262.5,-103.79 255.5,-103.79"/>
</g>
<!-- QuestionaireTabPage -->
<g id="node3" class="node">
<title>QuestionaireTabPage</title>
<polygon fill="#ffffb3" stroke="black" points="160.01,-84.8 23.99,-84.8 23.99,-48.8 160.01,-48.8 160.01,-84.8"/>
<text text-anchor="middle" x="92" y="-62.6" font-family="Times,serif" font-size="14.00">QuestionaireTabPage</text>
</g>
<!-- QuestionaireTabPage&#45;&gt;QuestionaireTabPageModule -->
<g id="edge3" class="edge">
<title>QuestionaireTabPage&#45;&gt;QuestionaireTabPageModule</title>
<path fill="none" stroke="black" d="M160.35,-66.8C168.19,-66.8 173.44,-66.8 173.44,-66.8 173.44,-66.8 173.44,-103.69 173.44,-103.69"/>
<polygon fill="black" stroke="black" points="169.94,-103.69 173.44,-113.69 176.94,-103.69 169.94,-103.69"/>
</g>
</g>
</svg>
