<?xml version="1.0" encoding="UTF-8" standalone="no"?>
<!DOCTYPE svg PUBLIC "-//W3C//DTD SVG 1.1//EN"
 "http://www.w3.org/Graphics/SVG/1.1/DTD/svg11.dtd">
<!-- Generated by graphviz version 2.47.3 (20210619.1520)
 -->
<!-- Title: dependencies Pages: 1 -->
<svg width="537pt" height="247pt"
 viewBox="0.00 0.00 537.00 246.80" xmlns="http://www.w3.org/2000/svg" xmlns:xlink="http://www.w3.org/1999/xlink">
<g id="graph0" class="graph" transform="scale(1 1) rotate(0) translate(4 242.8)">
<title>dependencies</title>
<polygon fill="white" stroke="transparent" points="-4,4 -4,-242.8 533,-242.8 533,4 -4,4"/>
<text text-anchor="middle" x="264.5" y="-8.2" font-family="sans-serif" font-size="14.00">dependencies</text>
<g id="clust1" class="cluster">
<title>cluster_AppModule</title>
<polygon fill="none" stroke="black" stroke-dasharray="1,5" points="8,-32.8 8,-230.8 521,-230.8 521,-32.8 8,-32.8"/>
</g>
<g id="clust6" class="cluster">
<title>cluster_AppModule_bootstrap</title>
<polygon fill="none" stroke="black" points="157,-170.8 157,-222.8 281,-222.8 281,-170.8 157,-170.8"/>
</g>
<g id="clust7" class="cluster">
<title>cluster_AppModule_providers</title>
<polygon fill="none" stroke="black" points="146,-40.8 146,-92.8 513,-92.8 513,-40.8 146,-40.8"/>
</g>
<g id="clust2" class="cluster">
<title>cluster_AppModule_declarations</title>
<polygon fill="none" stroke="black" points="16,-40.8 16,-92.8 138,-92.8 138,-40.8 16,-40.8"/>
</g>
<!-- AppComponent -->
<g id="node1" class="node">
<title>AppComponent</title>
<polygon fill="#ffffb3" stroke="black" points="129.94,-84.8 24.06,-84.8 24.06,-48.8 129.94,-48.8 129.94,-84.8"/>
<text text-anchor="middle" x="77" y="-62.6" font-family="Times,serif" font-size="14.00">AppComponent</text>
</g>
<!-- AppModule -->
<g id="node2" class="node">
<title>AppModule</title>
<polygon fill="#8dd3c7" stroke="black" points="260.66,-149.8 257.66,-153.8 236.66,-153.8 233.66,-149.8 177.34,-149.8 177.34,-113.8 260.66,-113.8 260.66,-149.8"/>
<text text-anchor="middle" x="219" y="-127.6" font-family="Times,serif" font-size="14.00">AppModule</text>
</g>
<!-- AppComponent&#45;&gt;AppModule -->
<g id="edge1" class="edge">
<title>AppComponent&#45;&gt;AppModule</title>
<path fill="none" stroke="black" d="M77,-84.91C77,-104.14 77,-131.8 77,-131.8 77,-131.8 167.16,-131.8 167.16,-131.8"/>
<polygon fill="black" stroke="black" points="167.16,-135.3 177.16,-131.8 167.16,-128.3 167.16,-135.3"/>
</g>
<!-- AppComponent  -->
<g id="node3" class="node">
<title>AppComponent </title>
<polygon fill="#80b1d3" stroke="black" points="273.44,-214.8 164.56,-214.8 164.56,-178.8 273.44,-178.8 273.44,-214.8"/>
<text text-anchor="middle" x="219" y="-192.6" font-family="Times,serif" font-size="14.00">AppComponent </text>
</g>
<!-- AppModule&#45;&gt;AppComponent  -->
<g id="edge2" class="edge">
<title>AppModule&#45;&gt;AppComponent </title>
<path fill="none" stroke="black" stroke-dasharray="1,5" d="M219,-149.91C219,-149.91 219,-168.79 219,-168.79"/>
<polygon fill="black" stroke="black" points="215.5,-168.79 219,-178.79 222.5,-168.79 215.5,-168.79"/>
</g>
<!-- QuestionSourceService -->
<g id="node4" class="node">
<title>QuestionSourceService</title>
<ellipse fill="#fdb462" stroke="black" cx="403" cy="-66.8" rx="101.84" ry="18"/>
<text text-anchor="middle" x="403" y="-62.6" font-family="Times,serif" font-size="14.00">QuestionSourceService</text>
</g>
<!-- QuestionSourceService&#45;&gt;AppModule -->
<g id="edge3" class="edge">
<title>QuestionSourceService&#45;&gt;AppModule</title>
<path fill="none" stroke="black" d="M403,-84.91C403,-104.14 403,-131.8 403,-131.8 403,-131.8 270.75,-131.8 270.75,-131.8"/>
<polygon fill="black" stroke="black" points="270.75,-128.3 260.75,-131.8 270.75,-135.3 270.75,-128.3"/>
</g>
<!-- ResultService -->
<g id="node5" class="node">
<title>ResultService</title>
<ellipse fill="#fdb462" stroke="black" cx="219" cy="-66.8" rx="64.84" ry="18"/>
<text text-anchor="middle" x="219" y="-62.6" font-family="Times,serif" font-size="14.00">ResultService</text>
</g>
<!-- ResultService&#45;&gt;AppModule -->
<g id="edge4" class="edge">
<title>ResultService&#45;&gt;AppModule</title>
<path fill="none" stroke="black" d="M219,-84.91C219,-84.91 219,-103.79 219,-103.79"/>
<polygon fill="black" stroke="black" points="215.5,-103.79 219,-113.79 222.5,-103.79 215.5,-103.79"/>
</g>
</g>
</svg>
