<?xml version="1.0" encoding="UTF-8" standalone="no"?>
<!DOCTYPE svg PUBLIC "-//W3C//DTD SVG 1.1//EN"
 "http://www.w3.org/Graphics/SVG/1.1/DTD/svg11.dtd">
<!-- Generated by graphviz version 2.47.3 (20210619.1520)
 -->
<!-- Title: dependencies Pages: 1 -->
<svg width="166pt" height="174pt"
 viewBox="0.00 0.00 166.00 173.80" xmlns="http://www.w3.org/2000/svg" xmlns:xlink="http://www.w3.org/1999/xlink">
<g id="graph0" class="graph" transform="scale(1 1) rotate(0) translate(4 169.8)">
<title>dependencies</title>
<polygon fill="white" stroke="transparent" points="-4,4 -4,-169.8 162,-169.8 162,4 -4,4"/>
<text text-anchor="middle" x="79" y="-8.2" font-family="sans-serif" font-size="14.00">dependencies</text>
<g id="clust1" class="cluster">
<title>cluster_DetailsPageModule</title>
<polygon fill="none" stroke="black" stroke-dasharray="1,5" points="8,-32.8 8,-157.8 150,-157.8 150,-32.8 8,-32.8"/>
</g>
<g id="clust2" class="cluster">
<title>cluster_DetailsPageModule_declarations</title>
<polygon fill="none" stroke="black" points="30,-40.8 30,-92.8 128,-92.8 128,-40.8 30,-40.8"/>
</g>
<!-- DetailsPage -->
<g id="node1" class="node">
<title>DetailsPage</title>
<polygon fill="#ffffb3" stroke="black" points="120.36,-84.8 37.64,-84.8 37.64,-48.8 120.36,-48.8 120.36,-84.8"/>
<text text-anchor="middle" x="79" y="-62.6" font-family="Times,serif" font-size="14.00">DetailsPage</text>
</g>
<!-- DetailsPageModule -->
<g id="node2" class="node">
<title>DetailsPageModule</title>
<polygon fill="#8dd3c7" stroke="black" points="142.41,-149.8 139.41,-153.8 118.41,-153.8 115.41,-149.8 15.59,-149.8 15.59,-113.8 142.41,-113.8 142.41,-149.8"/>
<text text-anchor="middle" x="79" y="-127.6" font-family="Times,serif" font-size="14.00">DetailsPageModule</text>
</g>
<!-- DetailsPage&#45;&gt;DetailsPageModule -->
<g id="edge1" class="edge">
<title>DetailsPage&#45;&gt;DetailsPageModule</title>
<path fill="none" stroke="black" d="M79,-84.91C79,-84.91 79,-103.79 79,-103.79"/>
<polygon fill="black" stroke="black" points="75.5,-103.79 79,-113.79 82.5,-103.79 75.5,-103.79"/>
</g>
</g>
</svg>
